<svg width="117" height="149" viewBox="0 0 117 149" fill="none" xmlns="http://www.w3.org/2000/svg">
<path d="M64 139.961L63.8652 140.104L56.8652 147.604L56 148.532V89.0459L56.1602 88.8975L63.1602 82.3975L64 81.6172V139.961ZM0.822266 37.3809L29.3232 61.3809L29.3447 61.4004L38.3447 69.9004L38.375 69.9297L38.4014 69.9639L45.9014 79.9639L45.9316 80.0049L45.9541 80.0518L49.4541 87.5518L49.4717 87.5898L49.4824 87.6299L51.9814 96.6299L51.9932 96.6709L51.9971 96.7139L52.2207 98.9482C52.2222 98.9535 52.223 98.9571 52.2236 98.959C52.4135 99.5514 52.3888 100.145 52.3955 100.238C52.4036 100.347 52.4129 100.586 52.418 100.92L52.998 106.714L53.0039 106.768L52.9971 106.822L51.9961 115.322L51.9873 115.402L48.4531 122.976L48.4375 123.01L48.416 123.041L43.4219 130.532L43.3857 130.598L43.3232 130.646L43.3213 130.647L37.3213 135.647L37.2666 135.693L37.2012 135.722L29.2012 139.222L29.1465 139.246L29.0879 139.256L23.0303 140.324L21.1084 140.752L21.0547 140.764H0V36.6885L0.822266 37.3809ZM117 131.264H107.5V59.4492L68.3486 97.6221L67.5 98.4492V85.0537L67.6504 84.9062L116.15 37.4062L117 36.5742V131.264ZM10 69.3828V129.764H22.4277L27.3037 128.3L33.708 124.852L37.4316 121.394L40.0586 118.017L41.6113 113.979L42.5078 110.17L43.4941 104.257L42.5078 96.8594L40.5674 89.5879L40.2549 89.0078L36.5742 83.0254L36.5361 82.9639L36.4775 83.0283L36.1123 82.5791L29.6123 74.5791V74.5781L28.2031 72.8555L25.6543 70.125L10.2607 57.0635L10 69.3828ZM58.3779 0.436523L64.6113 7.62891L68.7568 5.32617L68.792 5.30762L68.8291 5.29395L74.3291 3.29395L74.4121 3.26367H75.208C75.2638 3.25698 75.3191 3.24889 75.374 3.24414C75.4949 3.23367 75.6163 3.21518 75.8115 3.18652C75.9987 3.15906 76.2262 3.12623 76.5078 3.10156C76.9908 3.05929 77.4406 3.07757 77.8164 3.12793C78.0248 3.15587 78.2427 3.20146 78.4453 3.26367H80.5V10.8447L80.4746 10.9219L79.1943 14.7637H83.2402L83.3906 14.9512L86.0703 18.3008C86.1598 18.3897 86.2346 18.4739 86.29 18.5361C86.3274 18.5781 86.4006 18.6651 86.4629 18.791L87.3906 19.9512L88.04 20.7637H82.1113L74.7734 24.1875L70.9033 27.5742L67.9541 33.4736L65.8662 38.6895C65.8698 38.6908 65.8734 38.692 65.877 38.6934L65.9893 38.7432H65.9902L69.5176 33.8691L69.5527 33.8203L69.5986 33.7812L76.0068 28.3301L76.04 28.3018L76.0781 28.2793L81.9932 24.8105L82.0381 24.7842L82.0879 24.7676L89.4824 22.29L89.5596 22.2637H100.209L99.9707 22.9316L93.0693 42.2588L93.0576 42.292L93.042 42.3223L87.6191 52.7295L87.584 52.7969L87.5303 52.8506C83.1877 57.2162 76.5415 62.2558 73.7119 64.2676L70.3418 68.1406L67.4121 74.0303L65 78.8799V78.9951L64.8232 79.1455L58.3232 84.6455L58 84.9189L57.6768 84.6455L51.1768 79.1455L51 78.9951V78.8789L48.6572 74.1172L45.8125 68.334L42.5371 64.5303C39.7862 62.5526 33.3327 57.605 29.1152 53.3184L29.0625 53.2637L29.0273 53.1963L23.7598 42.9746L23.7441 42.9443L23.7324 42.9121L17.0283 23.9307L16.793 23.2637H27.1602L27.2383 23.29L34.4209 25.7236L34.4707 25.7402L34.5156 25.7676L40.2617 29.1738L40.2998 29.1963L40.333 29.2256L46.5586 34.5791L46.6045 34.6182L46.6387 34.667L50.4697 40.0215L50.5361 40.1143L50.5557 40.2266L50.6064 40.5225C50.6961 40.4816 50.7918 40.4503 50.8916 40.4268L49.0293 33.4404L46.0801 27.542L43.1689 24.1455L39.2725 21.71L36.9043 20.7637H28.293L34.293 14.7637H37.377L36.5117 10.8721L36.5 10.8184V10.3496C36.46 10.0511 36.4208 9.73781 36.3916 9.43555C36.3212 8.70684 36.2674 7.98358 36.3311 7.32617C36.381 6.81016 36.4336 6.39637 36.4902 6.08691C36.4932 6.07096 36.497 6.05489 36.5 6.03906V3.26367H43.6064L48.2031 5.30664L48.249 5.32715L48.291 5.35645L51.4199 7.5918L57.6221 0.436523L58 0L58.3779 0.436523ZM48.5635 21.1924L50.5928 24.0332C50.6502 24.0564 50.7005 24.0809 50.7412 24.1055L50.8633 24.1914L50.9443 24.2637C51.0198 24.3371 51.0757 24.409 51.1035 24.4453C51.1567 24.5146 51.211 24.5932 51.2637 24.6758C51.3696 24.8417 51.4873 25.0522 51.5957 25.2881C51.7737 25.6757 51.9336 26.1575 52.0928 26.5918C52.1522 26.7539 52.2025 26.9115 52.248 27.0635C52.4916 27.6058 52.7434 28.1803 52.9424 28.6465C53.3093 29.506 53.5372 30.0843 53.6953 30.4941L53.9541 31.0537L53.9756 31.1006L54.0312 31.3438C54.0344 31.3502 54.0369 31.3569 54.04 31.3633C54.1852 31.6547 54.2661 31.9584 54.3203 32.1807C54.3851 32.4467 54.4089 32.5739 54.4512 32.7061C54.6141 33.2148 54.715 33.7459 54.7637 34.2764C54.7806 34.4607 54.8022 34.6247 54.8271 34.791L55.4873 37.6514L55.5 37.707V75.0293L58 77.1123L60.5 75.0293V37.707L60.5127 37.6514L62.0244 31.1006L62.0459 31.0537L65.0459 24.5537L65.083 24.4736L66.0752 23.4805C66.083 23.4704 66.0917 23.4605 66.0996 23.4502C66.2211 23.2927 66.3799 23.1489 66.5273 23.0283L68.3916 21.165L64.9932 14.3691L64.4854 15.8057C64.2923 16.5092 63.9395 17.6649 63.6777 18.4521C63.3889 19.3208 63.1991 19.7437 63.0615 20.0195C62.9907 20.1615 62.9328 20.2631 62.8818 20.3496L59.5 29.9346V30.1465L59.4531 30.0654L59.4434 30.0957L58.5 29.7637L52.9443 16.2715L51.5566 13.4961L48.5635 21.1924ZM31.3564 42.5205L36.0898 50.2188L45.1426 58.9346L45.1523 58.9443L49.4619 63.3242L49.5479 63.4111L49.584 63.5283L51 68.1348V59.3418L49.583 52.1416L45.8027 43.0156L41.1201 37.7803L34.0352 33.46L26.5361 30.4951L31.3564 42.5205ZM82.4658 32.6309L75.1738 37.0303L70.3516 42.3623L66.4609 51.6533L65.0898 58.5322C65.0822 58.6104 65.0743 58.6945 65.0674 58.7842C65.0579 58.9069 65.0322 59.0201 65 59.125V64.4297C65.4643 64.0553 66.038 63.5971 66.4727 63.2959L66.4873 63.252L66.5234 63.1348L66.6104 63.0479L71.0469 58.5879L71.0566 58.5781L80.376 49.7031L85.249 41.8643L90.2207 29.5986L82.4658 32.6309ZM50.54 28.8447C50.5319 28.8584 50.5244 28.8724 50.5156 28.8857C50.5267 28.915 50.5377 28.9443 50.5488 28.9736C50.546 28.9308 50.543 28.8878 50.54 28.8447ZM41.9697 15.9902L45.3086 18.4951L48.7461 11.1885C48.6587 11.1737 48.5624 11.156 48.457 11.1309C48.0011 11.0222 47.6686 10.8631 47.2598 10.6631C47.2541 10.6603 47.2488 10.657 47.2432 10.6543L41.0889 8.94531L41.9697 15.9902ZM68.1865 11.0488L69.3281 13.4746C69.4536 13.684 69.5696 13.8865 69.6826 14.0938C69.7647 14.2442 69.8449 14.3931 69.9033 14.5156C69.932 14.5759 69.9681 14.6553 69.9971 14.7402C70.0064 14.7675 70.0429 14.8756 70.0566 15.0244L71.6484 18.4072L74.0889 15.9678L76 12.1455V8.76367H74.5859L68.1865 11.0488ZM54.2705 10.8271L56.4482 13.0049C56.5538 13.0977 56.6449 13.18 56.7207 13.249C56.8359 13.354 57.0957 13.5615 57.3359 13.8926L58.6514 15.208C58.6732 15.2153 58.7039 15.2264 58.7471 15.2402C58.8313 15.2672 58.9624 15.3088 59.0938 15.3584L62.7744 10.8604L59.8389 8.76367H57.1611L54.2705 10.8271Z" fill="black"/>
</svg>
